<svg width="18" height="18" viewBox="0 0 18 18" fill="none" xmlns="http://www.w3.org/2000/svg">
<path d="M8.99997 1C7.10007 0.999577 5.26203 1.67533 3.81485 2.90631C2.36768 4.13729 1.40584 5.84313 1.10149 7.7185C0.797153 9.59386 1.17018 11.5163 2.1538 13.1418C3.13743 14.7672 4.66743 15.9896 6.46997 16.59C6.86997 16.66 7.01997 16.42 7.01997 16.21L7.00997 14.72C4.99997 15.09 4.47997 14.23 4.31997 13.78C4.22997 13.55 3.83997 12.84 3.49997 12.65C3.21997 12.5 2.81997 12.13 3.48997 12.12C4.11997 12.11 4.56997 12.7 4.71997 12.94C5.43997 14.15 6.58997 13.81 7.04997 13.6C7.11997 13.08 7.32997 12.73 7.55997 12.53C5.77997 12.33 3.91997 11.64 3.91997 8.58C3.91997 7.71 4.22997 6.99 4.73997 6.43C4.65997 6.23 4.37997 5.41 4.81997 4.31C4.81997 4.31 5.48997 4.1 7.01997 5.13C8.32816 4.76383 9.71177 4.76383 11.02 5.13C12.55 4.09 13.22 4.31 13.22 4.31C13.66 5.41 13.38 6.23 13.3 6.43C13.81 6.99 14.12 7.7 14.12 8.58C14.12 11.65 12.25 12.33 10.47 12.53C10.76 12.78 11.01 13.26 11.01 14.01L11 16.21C11 16.42 11.15 16.67 11.55 16.59C13.3419 15.978 14.8591 14.7509 15.8323 13.1266C16.8054 11.5022 17.1717 9.58565 16.866 7.71692C16.5604 5.84819 15.6026 4.14817 14.1626 2.91854C12.7226 1.68891 10.8935 1.00919 8.99997 1Z" fill="#010101"/>
</svg>
