<svg width="18" height="18" viewBox="0 0 18 18" fill="none" xmlns="http://www.w3.org/2000/svg">
<path d="M9 1C4.64 1 1 4.64 1 9C1 13.36 4.64 17 9 17C13.36 17 17 13.36 17 9C17 4.64 13.36 1 9 1ZM9.81 13.13C9.79 13.84 9.26 14.28 8.57 14.26C7.91 14.24 7.4 13.77 7.42 13.06C7.44 12.34 7.98 11.88 8.64 11.9C9.34 11.93 9.84 12.41 9.81 13.13ZM11.77 8C11.18 8.66 9.99 9.09 9.72 9.97C9.66641 10.2166 9.63627 10.4677 9.63 10.72C9.63 10.77 9.6 10.88 9.45 10.88H7.88C7.72 10.88 7.7 10.78 7.7 10.73C7.76 9.38 8.36 8.53 9.53 7.85C9.92 7.56 10.23 7.1 10.23 6.61C10.24 5.37 8.59 4.79 7.88 5.89C7.67 6.22 7.7 6.62 7.7 6.99H5.75C5.75 5.02 6.78 3.73 8.78 3.73C10.53 3.73 12.25 4.6 12.25 6.56C12.25 7.13 12.05 7.61 11.77 8Z" fill="black"/>
</svg>
