<svg width="18" height="18" viewBox="0 0 18 18" fill="none" xmlns="http://www.w3.org/2000/svg">
<path d="M7.22002 11.83C7.7134 12.1945 8.25975 12.4811 8.84002 12.68L9.45002 10.88C8.59724 10.5872 7.86475 10.0215 7.36594 9.27042C6.86712 8.51933 6.6298 7.62476 6.69071 6.72518C6.75162 5.82561 7.10737 4.97119 7.70288 4.2942C8.2984 3.61721 9.10046 3.1554 9.98493 2.98026C10.8694 2.80512 11.7869 2.92641 12.5955 3.32537C13.4041 3.72432 14.0586 4.37868 14.4577 5.18716C14.8569 5.99564 14.9784 6.91315 14.8034 7.79765C14.6285 8.68216 14.1669 9.48433 13.49 10.08L14.75 11.5C15.6807 10.679 16.3338 9.58953 16.6195 8.3818C16.9052 7.17407 16.8093 5.90748 16.3451 4.7565C15.8809 3.60553 15.0712 2.62682 14.0276 1.9552C12.984 1.28358 11.7578 0.952109 10.5179 1.00645C9.27805 1.06078 8.08554 1.49825 7.10468 2.25859C6.12381 3.01893 5.40285 4.06472 5.04113 5.25189C4.6794 6.43906 4.69471 7.70919 5.08494 8.8873C5.47517 10.0654 6.22112 11.0935 7.22002 11.83ZM10.65 6.23C10.1641 5.86027 9.62452 5.5669 9.05002 5.36L8.40002 7.15C9.24794 7.45704 9.97098 8.03506 10.4572 8.79456C10.9434 9.55407 11.1656 10.4527 11.0895 11.3513C11.0133 12.2498 10.643 13.0982 10.0359 13.7651C9.42888 14.4319 8.61888 14.8801 7.73139 15.04C6.84389 15.2 5.92842 15.0629 5.12671 14.65C4.32501 14.237 3.68182 13.5713 3.29672 12.7559C2.91163 11.9404 2.80612 11.0208 2.99654 10.1393C3.18695 9.25786 3.66267 8.46376 4.35002 7.88L3.12002 6.43C2.17477 7.23457 1.50233 8.31252 1.19538 9.51527C0.888422 10.718 0.962061 11.9864 1.40615 13.1455C1.85023 14.3047 2.6429 15.2976 3.67492 15.9873C4.70693 16.6771 5.92747 17.0298 7.16834 16.9969C8.40921 16.9639 9.60931 16.5469 10.6033 15.8033C11.5972 15.0597 12.336 14.0262 12.718 12.8451C13.0999 11.664 13.1061 10.3935 12.7357 9.20876C12.3654 8.02399 11.6367 6.98326 10.65 6.23Z" fill="black"/>
</svg>
