<svg width="48" height="48" viewBox="0 0 48 48" fill="none" xmlns="http://www.w3.org/2000/svg">
<path opacity="0.2" d="M31.52 5.2C31.4476 5.15208 31.3596 5.13368 31.2741 5.14855C31.1886 5.16343 31.112 5.21046 31.06 5.28L7 39.94C6.9667 39.9874 6.94605 40.0424 6.94 40.1L6.4 45.31C6.37 45.57 6.64 45.76 6.88 45.65L11.65 43.36C11.7 43.34 11.75 43.3 11.78 43.26L35.83 8.58C35.88 8.50561 35.8985 8.4145 35.8817 8.32648C35.8648 8.23847 35.8139 8.16067 35.74 8.11L31.52 5.18V5.2Z" fill="black"/>
<path d="M28.5299 2.82001C28.9299 2.24001 29.7299 2.09001 30.3199 2.50001L34.5399 5.42001C35.1199 5.82001 35.2599 6.62001 34.8599 7.21001L10.8199 41.87C10.6899 42.05 10.5199 42.2 10.3199 42.3L5.54989 44.58C4.64989 45.02 3.61989 44.29 3.71989 43.29L4.26989 38.09C4.28989 37.87 4.36989 37.66 4.48989 37.49L28.5299 2.81001V2.82001ZM32.9599 6.63001L29.7399 4.40001L28.1999 6.60001L31.4199 8.84001L32.9499 6.63001H32.9599ZM30.3599 10.39L27.1299 8.15001L6.80989 37.45L10.0299 39.69L30.3499 10.39H30.3599ZM5.69989 42.4L8.61988 41L6.04989 39.22L5.70989 42.4H5.69989ZM40.8199 42.7C40.9468 42.6471 41.0615 42.5687 41.1568 42.4695C41.252 42.3703 41.3258 42.2525 41.3734 42.1235C41.4211 41.9946 41.4417 41.8571 41.4338 41.7198C41.426 41.5825 41.3899 41.4483 41.3279 41.3256C41.2658 41.2029 41.1791 41.0943 41.0732 41.0066C40.9673 40.9189 40.8444 40.854 40.7123 40.8159C40.5802 40.7779 40.4416 40.7675 40.3052 40.7854C40.1689 40.8033 40.0377 40.8491 39.9199 40.92C37.4075 42.2591 34.7412 43.2867 31.9799 43.98C30.0499 44.41 28.1799 44.28 26.2699 43.94C25.2999 43.77 24.3399 43.54 23.3499 43.3L23.0499 43.23C22.1499 43.02 21.2399 42.8 20.3099 42.61C17.4099 42.03 13.7099 42.12 10.8799 43.26C10.6332 43.3581 10.4357 43.5502 10.3306 43.794C10.2256 44.0378 10.2218 44.3134 10.3199 44.56C10.418 44.8067 10.6101 45.0042 10.8539 45.1092C11.0977 45.2143 11.3732 45.2181 11.6199 45.12C14.0199 44.16 17.2999 44.05 19.9199 44.57C20.7999 44.75 21.6899 44.97 22.5799 45.17L22.8799 45.25C23.8799 45.49 24.8799 45.73 25.9099 45.91C27.9799 46.28 30.1299 46.44 32.4099 45.93C35.4099 45.26 38.1799 44.03 40.8199 42.71V42.7Z" fill="black"/>
</svg>
