<svg width="18" height="18" viewBox="0 0 18 18" fill="none" xmlns="http://www.w3.org/2000/svg">
<g clip-path="url(#clip0_1_1569)">
<path d="M18.0001 16.5L12.8601 11.32H12.5101C13.6105 9.91638 14.1336 8.14566 13.9727 6.36939C13.8117 4.59311 12.9788 2.94527 11.6439 1.76234C10.3091 0.579406 8.57312 -0.0493976 6.79038 0.00432355C5.00764 0.0580447 3.31264 0.790239 2.05148 2.0514C0.790315 3.31256 0.058121 5.00756 0.00439984 6.79031C-0.0493213 8.57305 0.579483 10.3091 1.76242 11.6439C2.94535 12.9787 4.59319 13.8116 6.36946 13.9726C8.14573 14.1335 9.91646 13.6104 11.3201 12.51V12.86L16.5001 18L18.0001 16.5ZM12.0001 7C12.0001 8.32609 11.4733 9.59785 10.5356 10.5355C9.59793 11.4732 8.32616 12 7.00008 12C5.674 12 4.40223 11.4732 3.46455 10.5355C2.52686 9.59785 2.00008 8.32609 2.00008 7C2.00008 5.67392 2.52686 4.40215 3.46455 3.46447C4.40223 2.52679 5.674 2 7.00008 2C8.32616 2 9.59793 2.52679 10.5356 3.46447C11.4733 4.40215 12.0001 5.67392 12.0001 7Z" fill="black"/>
</g>
<defs>
<clipPath id="clip0_1_1569">
<rect width="18" height="18" fill="white"/>
</clipPath>
</defs>
</svg>
