<svg width="18" height="18" viewBox="0 0 18 18" fill="none" xmlns="http://www.w3.org/2000/svg">
<path d="M17 4.04C16.41 4.3 15.78 4.48 15.12 4.56C15.8046 4.1477 16.3162 3.50101 16.56 2.74C15.92 3.11 15.22 3.38 14.47 3.53C13.9777 2.99644 13.3223 2.64128 12.6065 2.52018C11.8907 2.39909 11.1549 2.51889 10.5145 2.86083C9.8741 3.20276 9.36522 3.74751 9.06763 4.40969C8.77003 5.07187 8.70054 5.81408 8.87003 6.52C7.56806 6.45486 6.29433 6.11673 5.13147 5.52755C3.96861 4.93837 2.94261 4.1113 2.12003 3.1C1.69998 3.8226 1.57164 4.6783 1.76121 5.49233C1.95077 6.30636 2.44396 7.01732 3.14003 7.48C2.61862 7.46703 2.10783 7.3299 1.65003 7.08V7.11C1.65122 7.86885 1.91469 8.60395 2.39582 9.19078C2.87695 9.77761 3.54614 10.1801 4.29003 10.33C3.8074 10.4605 3.30164 10.481 2.81003 10.39C3.02038 11.0425 3.42934 11.6131 3.97976 12.0218C4.53017 12.4306 5.19454 12.6572 5.88003 12.67C5.20054 13.2041 4.42249 13.5991 3.59032 13.8325C2.75814 14.0658 1.88815 14.1329 1.03003 14.03C2.53469 14.9923 4.28396 15.5025 6.07003 15.5C12.11 15.5 15.41 10.5 15.41 6.17V5.75C16.0505 5.28515 16.6025 4.7094 17.04 4.05L17 4.04Z" fill="#2AA3EF"/>
</svg>
